<mxfile host="www.draw.io" modified="2019-10-25T03:40:36.154Z" agent="Mozilla/5.0 (Windows NT 10.0; WOW64) AppleWebKit/537.36 (KHTML, like Gecko) Chrome/73.0.3683.86 Safari/537.36" etag="nA4H4BYfmRFUjGb_LJHL" version="12.1.5" type="github" pages="1">
  <diagram id="2wywwgnPdGmNAfwlJ5xG" name="第 1 页">
    <mxGraphModel dx="854" dy="480" grid="1" gridSize="10" guides="1" tooltips="1" connect="1" arrows="1" fold="1" page="1" pageScale="1" pageWidth="827" pageHeight="1169" math="0" shadow="0">
      <root>
        <mxCell id="0"/>
        <mxCell id="1" parent="0"/>
        <mxCell id="wN9nyht_0yyj5oyMkxLu-4" style="edgeStyle=orthogonalEdgeStyle;rounded=0;orthogonalLoop=1;jettySize=auto;html=1;" edge="1" parent="1" source="wN9nyht_0yyj5oyMkxLu-1">
          <mxGeometry relative="1" as="geometry">
            <mxPoint x="300" y="90" as="targetPoint"/>
          </mxGeometry>
        </mxCell>
        <mxCell id="wN9nyht_0yyj5oyMkxLu-1" value="同步微信菜单" style="ellipse;whiteSpace=wrap;html=1;" vertex="1" parent="1">
          <mxGeometry x="90" y="50" width="120" height="80" as="geometry"/>
        </mxCell>
        <mxCell id="wN9nyht_0yyj5oyMkxLu-8" style="edgeStyle=orthogonalEdgeStyle;rounded=0;orthogonalLoop=1;jettySize=auto;html=1;" edge="1" parent="1" source="wN9nyht_0yyj5oyMkxLu-6" target="wN9nyht_0yyj5oyMkxLu-10">
          <mxGeometry relative="1" as="geometry">
            <mxPoint x="480" y="240" as="targetPoint"/>
          </mxGeometry>
        </mxCell>
        <mxCell id="wN9nyht_0yyj5oyMkxLu-31" style="edgeStyle=orthogonalEdgeStyle;rounded=0;orthogonalLoop=1;jettySize=auto;html=1;entryX=1;entryY=0.5;entryDx=0;entryDy=0;" edge="1" parent="1" source="wN9nyht_0yyj5oyMkxLu-6" target="wN9nyht_0yyj5oyMkxLu-7">
          <mxGeometry relative="1" as="geometry">
            <Array as="points">
              <mxPoint x="340" y="179"/>
            </Array>
          </mxGeometry>
        </mxCell>
        <mxCell id="wN9nyht_0yyj5oyMkxLu-6" value="入参非空判断" style="rhombus;whiteSpace=wrap;html=1;" vertex="1" parent="1">
          <mxGeometry x="300" y="50" width="80" height="80" as="geometry"/>
        </mxCell>
        <mxCell id="wN9nyht_0yyj5oyMkxLu-7" value="请输入菜单分组信息和正确的微信appId" style="ellipse;whiteSpace=wrap;html=1;" vertex="1" parent="1">
          <mxGeometry x="90" y="147" width="120" height="63" as="geometry"/>
        </mxCell>
        <mxCell id="wN9nyht_0yyj5oyMkxLu-14" value="" style="edgeStyle=orthogonalEdgeStyle;rounded=0;orthogonalLoop=1;jettySize=auto;html=1;" edge="1" parent="1" source="wN9nyht_0yyj5oyMkxLu-10" target="wN9nyht_0yyj5oyMkxLu-13">
          <mxGeometry relative="1" as="geometry"/>
        </mxCell>
        <mxCell id="wN9nyht_0yyj5oyMkxLu-18" value="" style="edgeStyle=orthogonalEdgeStyle;rounded=0;orthogonalLoop=1;jettySize=auto;html=1;entryX=1;entryY=0.5;entryDx=0;entryDy=0;" edge="1" parent="1" source="wN9nyht_0yyj5oyMkxLu-10" target="wN9nyht_0yyj5oyMkxLu-29">
          <mxGeometry relative="1" as="geometry">
            <mxPoint x="550" y="260" as="targetPoint"/>
          </mxGeometry>
        </mxCell>
        <mxCell id="wN9nyht_0yyj5oyMkxLu-10" value="根据menuGroupId和appId查询菜单列表" style="rounded=0;whiteSpace=wrap;html=1;" vertex="1" parent="1">
          <mxGeometry x="630" y="230" width="120" height="60" as="geometry"/>
        </mxCell>
        <mxCell id="wN9nyht_0yyj5oyMkxLu-16" value="" style="edgeStyle=orthogonalEdgeStyle;rounded=0;orthogonalLoop=1;jettySize=auto;html=1;entryX=0.5;entryY=0;entryDx=0;entryDy=0;" edge="1" parent="1" source="wN9nyht_0yyj5oyMkxLu-13" target="wN9nyht_0yyj5oyMkxLu-19">
          <mxGeometry relative="1" as="geometry">
            <mxPoint x="690" y="810" as="targetPoint"/>
          </mxGeometry>
        </mxCell>
        <mxCell id="wN9nyht_0yyj5oyMkxLu-13" value="根据库里查出来的数据拼装发送微信对象" style="rounded=0;whiteSpace=wrap;html=1;" vertex="1" parent="1">
          <mxGeometry x="630" y="620" width="120" height="60" as="geometry"/>
        </mxCell>
        <mxCell id="wN9nyht_0yyj5oyMkxLu-24" value="" style="edgeStyle=orthogonalEdgeStyle;rounded=0;orthogonalLoop=1;jettySize=auto;html=1;" edge="1" parent="1" source="wN9nyht_0yyj5oyMkxLu-19" target="wN9nyht_0yyj5oyMkxLu-23">
          <mxGeometry relative="1" as="geometry"/>
        </mxCell>
        <mxCell id="wN9nyht_0yyj5oyMkxLu-26" style="edgeStyle=orthogonalEdgeStyle;rounded=0;orthogonalLoop=1;jettySize=auto;html=1;entryX=0.5;entryY=0;entryDx=0;entryDy=0;" edge="1" parent="1" source="wN9nyht_0yyj5oyMkxLu-19" target="wN9nyht_0yyj5oyMkxLu-25">
          <mxGeometry relative="1" as="geometry"/>
        </mxCell>
        <mxCell id="wN9nyht_0yyj5oyMkxLu-19" value="调用微信创建个性化菜单接口，返回menuId" style="rounded=0;whiteSpace=wrap;html=1;" vertex="1" parent="1">
          <mxGeometry x="630" y="810" width="120" height="60" as="geometry"/>
        </mxCell>
        <mxCell id="wN9nyht_0yyj5oyMkxLu-23" value="调用微信删除个性化菜单接口，删除上次同步菜单创建的个性化菜单" style="rounded=0;whiteSpace=wrap;html=1;" vertex="1" parent="1">
          <mxGeometry x="560" y="930" width="120" height="60" as="geometry"/>
        </mxCell>
        <mxCell id="wN9nyht_0yyj5oyMkxLu-25" value="更新数据库，保存个性化菜单menuId" style="rounded=0;whiteSpace=wrap;html=1;" vertex="1" parent="1">
          <mxGeometry x="700" y="930" width="120" height="60" as="geometry"/>
        </mxCell>
        <mxCell id="wN9nyht_0yyj5oyMkxLu-34" style="edgeStyle=orthogonalEdgeStyle;rounded=0;orthogonalLoop=1;jettySize=auto;html=1;entryX=1;entryY=0.5;entryDx=0;entryDy=0;" edge="1" parent="1" source="wN9nyht_0yyj5oyMkxLu-29" target="wN9nyht_0yyj5oyMkxLu-30">
          <mxGeometry relative="1" as="geometry"/>
        </mxCell>
        <mxCell id="wN9nyht_0yyj5oyMkxLu-39" style="edgeStyle=orthogonalEdgeStyle;rounded=0;orthogonalLoop=1;jettySize=auto;html=1;entryX=0.5;entryY=0;entryDx=0;entryDy=0;" edge="1" parent="1" source="wN9nyht_0yyj5oyMkxLu-29" target="wN9nyht_0yyj5oyMkxLu-36">
          <mxGeometry relative="1" as="geometry"/>
        </mxCell>
        <mxCell id="wN9nyht_0yyj5oyMkxLu-29" value="&lt;span style=&quot;white-space: normal&quot;&gt;查询一级菜单&lt;/span&gt;" style="rhombus;whiteSpace=wrap;html=1;" vertex="1" parent="1">
          <mxGeometry x="395" y="220" width="120" height="80" as="geometry"/>
        </mxCell>
        <mxCell id="wN9nyht_0yyj5oyMkxLu-30" value="根据分组Id和appId未查询到对应的菜单" style="ellipse;whiteSpace=wrap;html=1;" vertex="1" parent="1">
          <mxGeometry x="88" y="230" width="120" height="60" as="geometry"/>
        </mxCell>
        <mxCell id="wN9nyht_0yyj5oyMkxLu-35" value="查询结果为空" style="text;html=1;strokeColor=none;fillColor=none;align=center;verticalAlign=middle;whiteSpace=wrap;rounded=0;" vertex="1" parent="1">
          <mxGeometry x="270" y="240" width="80" height="20" as="geometry"/>
        </mxCell>
        <mxCell id="wN9nyht_0yyj5oyMkxLu-38" value="" style="edgeStyle=orthogonalEdgeStyle;rounded=0;orthogonalLoop=1;jettySize=auto;html=1;" edge="1" parent="1" source="wN9nyht_0yyj5oyMkxLu-36" target="wN9nyht_0yyj5oyMkxLu-37">
          <mxGeometry relative="1" as="geometry"/>
        </mxCell>
        <mxCell id="wN9nyht_0yyj5oyMkxLu-36" value="设置一级菜单明细" style="rounded=0;whiteSpace=wrap;html=1;" vertex="1" parent="1">
          <mxGeometry x="395" y="330" width="120" height="60" as="geometry"/>
        </mxCell>
        <mxCell id="wN9nyht_0yyj5oyMkxLu-41" value="" style="edgeStyle=orthogonalEdgeStyle;rounded=0;orthogonalLoop=1;jettySize=auto;html=1;" edge="1" parent="1" source="wN9nyht_0yyj5oyMkxLu-37" target="wN9nyht_0yyj5oyMkxLu-40">
          <mxGeometry relative="1" as="geometry"/>
        </mxCell>
        <mxCell id="wN9nyht_0yyj5oyMkxLu-37" value="查询所有子菜单" style="rounded=0;whiteSpace=wrap;html=1;" vertex="1" parent="1">
          <mxGeometry x="395" y="420" width="120" height="60" as="geometry"/>
        </mxCell>
        <mxCell id="wN9nyht_0yyj5oyMkxLu-40" value="循环设置子菜单明细" style="rounded=0;whiteSpace=wrap;html=1;" vertex="1" parent="1">
          <mxGeometry x="395" y="510" width="120" height="60" as="geometry"/>
        </mxCell>
        <mxCell id="wN9nyht_0yyj5oyMkxLu-42" value="查询结果有值" style="text;html=1;strokeColor=none;fillColor=none;align=center;verticalAlign=middle;whiteSpace=wrap;rounded=0;" vertex="1" parent="1">
          <mxGeometry x="470" y="300" width="90" height="20" as="geometry"/>
        </mxCell>
        <mxCell id="wN9nyht_0yyj5oyMkxLu-43" value="入参有空值" style="text;html=1;strokeColor=none;fillColor=none;align=center;verticalAlign=middle;whiteSpace=wrap;rounded=0;" vertex="1" parent="1">
          <mxGeometry x="250" y="159" width="70" height="20" as="geometry"/>
        </mxCell>
        <mxCell id="wN9nyht_0yyj5oyMkxLu-44" value="入参不为空" style="text;html=1;strokeColor=none;fillColor=none;align=center;verticalAlign=middle;whiteSpace=wrap;rounded=0;" vertex="1" parent="1">
          <mxGeometry x="420" y="70" width="90" height="20" as="geometry"/>
        </mxCell>
      </root>
    </mxGraphModel>
  </diagram>
</mxfile>
